<?xml version="1.0" encoding="utf-8"?>
<!-- Generator: Adobe Illustrator 16.0.4, SVG Export Plug-In . SVG Version: 6.00 Build 0)  -->
<!DOCTYPE svg PUBLIC "-//W3C//DTD SVG 1.1//EN" "http://www.w3.org/Graphics/SVG/1.1/DTD/svg11.dtd">
<svg version="1.1" id="Layer_1" xmlns="http://www.w3.org/2000/svg" xmlns:xlink="http://www.w3.org/1999/xlink" x="0px" y="0px"
	 width="32px" height="32px" viewBox="0 0 32 32" enable-background="new 0 0 32 32" xml:space="preserve">
<path fill="#2BB5D0" d="M31.786,13.331c0.026-0.27,0.041-0.545,0.041-0.822c0-4.544-3.683-8.229-8.228-8.229
	c-3.346,0-6.225,1.999-7.511,4.866c-1.286-2.868-4.165-4.866-7.51-4.866c-4.544,0-8.227,3.685-8.227,8.229
	c0,0.277,0.014,0.552,0.04,0.822c0,0,0.161,8.103,15.798,16.253l0,0C31.825,21.434,31.786,13.331,31.786,13.331z M8.813,6.093
	c0.747,0,1.351,0.604,1.351,1.35s-0.604,1.35-1.351,1.35S7.465,8.19,7.465,7.443C7.464,6.698,8.067,6.093,8.813,6.093z
	 M4.593,16.194c-0.126,0.035-0.254,0.052-0.378,0.052c-0.617,0-1.183-0.409-1.356-1.031c-0.212-0.755-0.312-1.449-0.338-2.081
	C2.395,9.807,4.445,8.171,4.547,8.09c0.616-0.476,1.501-0.364,1.975,0.251c0.474,0.609,0.367,1.48-0.229,1.96
	c-0.073,0.061-0.962,0.86-0.956,2.57c0.003,0.461,0.069,0.988,0.234,1.587C5.78,15.209,5.341,15.985,4.593,16.194z"/>
</svg>
