<?xml version="1.0" encoding="utf-8"?>
<!-- Generator: Adobe Illustrator 16.0.0, SVG Export Plug-In . SVG Version: 6.00 Build 0)  -->
<!DOCTYPE svg PUBLIC "-//W3C//DTD SVG 1.1//EN" "http://www.w3.org/Graphics/SVG/1.1/DTD/svg11.dtd">
<svg version="1.1" id="Layer_1" xmlns="http://www.w3.org/2000/svg" xmlns:xlink="http://www.w3.org/1999/xlink" x="0px" y="0px"
	 width="60px" height="60px" viewBox="0 0 60 60" enable-background="new 0 0 60 60" xml:space="preserve">
<g>
	<path fill="#2EB6D1" d="M42.95,5.273c-5.15,0-9.94,2.363-13.093,6.26c-3.15-3.898-7.939-6.26-13.094-6.26
		c-9.286,0-16.841,7.554-16.841,16.84c0,5.54,2.706,9.427,4.881,12.549c6.322,9.07,22.216,20.355,22.89,20.832
		c0.649,0.459,1.407,0.688,2.163,0.688c0.757,0,1.516-0.229,2.164-0.688c0.674-0.477,16.568-11.762,22.89-20.832
		c2.176-3.122,4.883-7.009,4.883-12.549C59.792,12.828,52.236,5.273,42.95,5.273z M51.835,32.52
		c-6.019,8.635-21.979,19.914-21.979,19.914S13.898,41.152,7.879,32.52c-2.22-3.188-4.208-6.22-4.208-10.405
		c0-7.229,5.861-13.093,13.092-13.093c5.344,0,9.932,3.207,11.968,7.797v-0.023h0.005c0.151,0.479,0.594,0.828,1.12,0.828
		c0.528,0,0.97-0.349,1.121-0.828h0.017c2.039-4.577,6.62-7.774,11.957-7.774c7.229,0,13.094,5.863,13.094,13.093
		C56.044,26.3,54.057,29.33,51.835,32.52z"/>
	<path fill="#2EB6D1" d="M34.247,19.64c0.183,0.094,0.378,0.139,0.569,0.139c0.453,0,0.892-0.249,1.113-0.679
		c0.045-0.089,0.088-0.178,0.129-0.272c1.252-2.809,4.039-4.623,7.104-4.623c2.109,0,4.084,0.833,5.562,2.344
		c0.481,0.494,1.273,0.504,1.767,0.021c0.493-0.483,0.503-1.273,0.021-1.767c-1.951-1.998-4.562-3.098-7.35-3.098
		c-4.049,0-7.732,2.397-9.385,6.104c-0.022,0.05-0.045,0.101-0.071,0.151C33.391,18.571,33.633,19.325,34.247,19.64z"/>
	<path fill="#2EB6D1" d="M52.191,20.732c-0.689,0-1.25,0.56-1.25,1.25c0,2.518-1.239,4.48-3.284,7.413
		C43.682,35.1,34.393,42.488,29.856,45.924C25.318,42.486,16.031,35.1,12.057,29.395c-2.045-2.933-3.286-4.894-3.286-7.413
		c0-4.288,3.49-7.778,7.779-7.778c3.071,0,5.862,1.82,7.108,4.631c0.044,0.099,0.091,0.196,0.14,0.292
		c0.32,0.612,1.075,0.85,1.686,0.529c0.612-0.318,0.85-1.074,0.53-1.685c-0.023-0.045-0.046-0.092-0.068-0.144
		c-1.649-3.719-5.337-6.123-9.395-6.123c-5.667,0-10.277,4.61-10.277,10.277c0,3.235,1.546,5.706,3.733,8.841
		c4.255,6.107,13.793,13.689,19.1,17.666c0.223,0.166,0.486,0.248,0.749,0.248c0.264,0,0.527-0.082,0.75-0.248
		c5.307-3.977,14.846-11.557,19.103-17.666c2.187-3.137,3.733-5.607,3.733-8.841C53.441,21.292,52.882,20.732,52.191,20.732z"/>
</g>
</svg>
