<?xml version="1.0" encoding="utf-8"?>
<!-- Generator: Adobe Illustrator 16.0.0, SVG Export Plug-In . SVG Version: 6.00 Build 0)  -->
<!DOCTYPE svg PUBLIC "-//W3C//DTD SVG 1.1//EN" "http://www.w3.org/Graphics/SVG/1.1/DTD/svg11.dtd">
<svg version="1.1" id="Layer_1" xmlns="http://www.w3.org/2000/svg" xmlns:xlink="http://www.w3.org/1999/xlink" x="0px" y="0px"
	 width="60px" height="60px" viewBox="0 0 60 60" enable-background="new 0 0 60 60" xml:space="preserve">
<path fill="#2EB6D1" d="M54.018,14.683H42.391v-0.297c0-3.222-2.619-5.843-5.842-5.843H23.394c-3.221,0-5.842,2.621-5.842,5.843
	v0.297H5.927c-3.222,0-5.842,2.621-5.842,5.843v27.833c0,3.222,2.621,5.844,5.842,5.844h48.091c3.221,0,5.842-2.622,5.842-5.844
	V20.526C59.859,17.304,57.238,14.683,54.018,14.683z M21.297,14.386c0-1.157,0.941-2.098,2.097-2.098h13.155
	c1.156,0,2.098,0.94,2.098,2.098v0.297h-17.35V14.386z M5.927,18.429h48.091c1.154,0,2.096,0.941,2.096,2.097v3.939
	c-0.045,0.131-0.075,0.27-0.075,0.415c0,1.005-0.323,2.27-2.841,3.172l-14.413,3.649c-0.204-1.913-1.956-3.412-4.083-3.412h-9.458
	c-2.135,0-3.893,1.513-4.085,3.438L6.643,28.052c-2.153-0.771-2.7-1.809-2.813-2.722v-4.805C3.83,19.37,4.771,18.429,5.927,18.429z
	 M36.309,32.078v2.445c0,0.699-0.736,1.289-1.607,1.289h-9.458c-0.872,0-1.608-0.59-1.608-1.289v-2.445
	c0-0.7,0.736-1.292,1.608-1.292H34.7C35.57,30.787,36.309,31.378,36.309,32.078z M54.018,50.458H5.927
	c-1.156,0-2.097-0.94-2.097-2.099v-0.469c0.759,0.44,1.64,0.697,2.581,0.697h35.085c0.689,0,1.248-0.557,1.248-1.247
	c0-0.688-0.559-1.249-1.248-1.249H6.411c-1.267,0-2.326-0.887-2.581-2.064V29.445c0.58,0.379,1.258,0.707,2.036,0.981
	c0.035,0.013,0.071,0.023,0.108,0.033l15.165,3.839v0.226c0,2.09,1.841,3.787,4.104,3.787H34.7c2.264,0,4.104-1.697,4.104-3.787
	v-0.25l15.062-3.814c0.036-0.01,0.071-0.02,0.106-0.033c0.827-0.291,1.539-0.644,2.141-1.053v14.654
	c-0.254,1.179-1.312,2.064-2.58,2.064h-6.04c-0.688,0-1.249,0.561-1.249,1.249c0,0.69,0.561,1.247,1.249,1.247h6.04
	c0.939,0,1.82-0.257,2.58-0.697v0.469C56.113,49.518,55.172,50.458,54.018,50.458z"/>
</svg>
