<?xml version="1.0" encoding="utf-8"?>
<!-- Generator: Adobe Illustrator 16.0.0, SVG Export Plug-In . SVG Version: 6.00 Build 0)  -->
<!DOCTYPE svg PUBLIC "-//W3C//DTD SVG 1.1//EN" "http://www.w3.org/Graphics/SVG/1.1/DTD/svg11.dtd">
<svg version="1.1" id="Layer_1" xmlns="http://www.w3.org/2000/svg" xmlns:xlink="http://www.w3.org/1999/xlink" x="0px" y="0px"
	 width="60px" height="60px" viewBox="0 0 60 60" enable-background="new 0 0 60 60" xml:space="preserve">
<g>
	<path fill="#2EB6D1" d="M47.846,19.861l8-13.075c0.379-0.584,0.602-1.281,0.602-2.031c0-2.058-1.668-3.726-3.727-3.726h-0.003
		H31.102c-2.059,0-3.728,1.668-3.728,3.726v2.472H15.485c-2.058,0-3.726,1.667-3.726,3.726v29.93c0,2.059,1.668,3.729,3.726,3.729
		h21.619c2.058,0,3.727-1.67,3.727-3.729v-2.472h11.889c1.354,0,2.604-0.734,3.26-1.92c0.656-1.185,0.619-2.632-0.101-3.78
		L47.846,19.861z M15.485,10.953h13.127v1.824c0,0.686,0.555,1.241,1.241,1.241c0.687,0,1.243-0.555,1.243-1.241v-1.824H31.1V4.755
		h21.617l-9.255,15.128l9.255,14.803H37.104v0.008h-6.008V18.415c0-0.686-0.556-1.241-1.242-1.241s-1.241,0.555-1.241,1.241V35.93
		c0,0,0,0,0,0.002v0.006c0,0.021,0.005,0.041,0.005,0.062c0.004,0.059,0.007,0.118,0.019,0.176c0.007,0.04,0.022,0.077,0.032,0.115
		c0.012,0.039,0.021,0.077,0.037,0.116c0.015,0.038,0.037,0.071,0.055,0.108c0.019,0.033,0.035,0.071,0.058,0.104
		c0.023,0.036,0.052,0.065,0.079,0.101c0.024,0.027,0.045,0.061,0.073,0.086c0.046,0.047,0.098,0.09,0.152,0.129
		c0.012,0.008,0.02,0.019,0.032,0.025l0.003,0.004c0.002,0,0.004,0.002,0.006,0.003l5.723,3.915H15.486L15.485,10.953L15.485,10.953
		z M37.104,39.391l-3.234-2.211h3.234V39.391z"/>
	<path fill="#2EB6D1" d="M6.81,7.583c-1.03,0-1.863,0.833-1.863,1.864V58.05c0,1.029,0.833,1.864,1.863,1.864
		c1.029,0,1.863-0.835,1.863-1.864V9.446C8.672,8.416,7.838,7.583,6.81,7.583z"/>
	<circle fill="#2EB6D1" cx="6.81" cy="2.858" r="2.413"/>
</g>
</svg>
