<?xml version="1.0" encoding="utf-8"?>
<!-- Generator: Adobe Illustrator 16.0.0, SVG Export Plug-In . SVG Version: 6.00 Build 0)  -->
<!DOCTYPE svg PUBLIC "-//W3C//DTD SVG 1.1//EN" "http://www.w3.org/Graphics/SVG/1.1/DTD/svg11.dtd">
<svg version="1.1" id="Layer_1" xmlns="http://www.w3.org/2000/svg" xmlns:xlink="http://www.w3.org/1999/xlink" x="0px" y="0px"
	 width="60px" height="60px" viewBox="0 0 60 60" enable-background="new 0 0 60 60" xml:space="preserve">
<g>
	<path fill="#2EB6D1" d="M30.421,28.841c7.951,0,14.42-6.468,14.42-14.419C44.841,6.47,38.372,0,30.421,0
		c-7.951,0-14.42,6.469-14.42,14.421S22.47,28.841,30.421,28.841z M30.421,3.766c5.875,0,10.655,4.78,10.655,10.656
		c0,5.875-4.78,10.655-10.655,10.655s-10.656-4.78-10.656-10.655C19.765,8.546,24.546,3.766,30.421,3.766z"/>
	<path fill="#2EB6D1" d="M55.264,43.771c-3.605-6.233-9.371-10.854-16.231-13.013c-0.89-0.281-1.853,0.134-2.259,0.974
		c-1.439,2.97-3.623,5.466-6.353,7.271c-2.729-1.806-4.912-4.302-6.352-7.271c-0.408-0.84-1.369-1.253-2.258-0.974
		C14.95,32.916,9.185,37.537,5.578,43.771c-0.338,0.584-0.338,1.303,0,1.886C10.697,54.503,20.217,60,30.421,60
		c10.205,0,19.724-5.497,24.843-14.344C55.604,45.073,55.604,44.354,55.264,43.771z M39.37,34.861
		c1.038,0.396,2.041,0.869,3.011,1.396c-1.525,2.646-3.688,5.79-6.427,8.221c-0.31-0.27-0.628-0.558-0.956-0.854
		c-0.674-0.607-1.361-1.225-2.077-1.782C35.555,40.011,37.752,37.643,39.37,34.861z M27.92,41.844
		c-0.714,0.559-1.402,1.174-2.076,1.782c-0.329,0.296-0.648,0.584-0.958,0.854c-2.737-2.432-4.897-5.574-6.424-8.222
		c0.968-0.528,1.972-1,3.011-1.397C23.091,37.643,25.287,40.011,27.92,41.844z M31.676,56.193v-8.301
		c0-0.691-0.562-1.254-1.255-1.254c-0.693,0-1.255,0.562-1.255,1.254v8.301c-8.019-0.407-15.418-4.699-19.755-11.48
		c1.817-2.845,4.172-5.266,6.911-7.143c1.785,3.082,4.393,6.806,7.77,9.521c0.454,0.365,1.098,0.37,1.557,0.014
		c0.622-0.483,1.232-1.033,1.877-1.616c0.949-0.854,1.926-1.736,2.896-2.349c0.971,0.611,1.947,1.493,2.896,2.349
		c0.646,0.583,1.256,1.133,1.877,1.616c0.227,0.177,0.498,0.265,0.771,0.265c0.278,0,0.556-0.093,0.786-0.277
		c3.376-2.717,5.984-6.438,7.771-9.522c2.738,1.878,5.093,4.299,6.91,7.144C47.094,51.494,39.693,55.786,31.676,56.193z"/>
</g>
</svg>
